<svg width="17" height="16" viewBox="0 0 17 16" fill="none" xmlns="http://www.w3.org/2000/svg">
<path d="M3.66453 3.06683V9.18683C3.66453 9.64016 3.76891 10.0624 3.97767 10.4535C4.18643 10.8446 4.47736 11.1646 4.85046 11.4135L8.32828 13.7335L11.8061 11.4135C12.1792 11.1646 12.4701 10.8446 12.6789 10.4535C12.8877 10.0624 12.992 9.64016 12.992 9.18683V3.06683L8.32828 2.02683L3.66453 3.06683ZM2.85171 1.88016L8.32828 0.666829L13.8049 1.88016C13.9559 1.91572 14.0802 1.99572 14.178 2.12016C14.2757 2.24461 14.3245 2.38238 14.3245 2.5335V9.18683C14.3245 9.86238 14.1669 10.4935 13.8515 11.0802C13.5361 11.6668 13.0986 12.1468 12.539 12.5202L8.32828 15.3335L4.11758 12.5202C3.55793 12.1468 3.12043 11.6668 2.80507 11.0802C2.48971 10.4935 2.33203 9.86238 2.33203 9.18683V2.5335C2.33203 2.38238 2.38089 2.24461 2.47861 2.12016C2.57632 1.99572 2.70069 1.91572 2.85171 1.88016ZM8.32828 9.00016L6.36951 10.0268L6.74261 7.8535L5.15693 6.30683L7.35556 5.98683L8.32828 4.00016L9.30101 5.98683L11.4996 6.30683L9.91396 7.8535L10.2871 10.0268L8.32828 9.00016Z" fill="white"/>
</svg>
