<svg width="15" height="14" viewBox="0 0 15 14" fill="none" xmlns="http://www.w3.org/2000/svg">
<path d="M7.28914 0.583171L12.0824 1.64484C12.2146 1.67595 12.3235 1.74595 12.409 1.85484C12.4945 1.96373 12.5373 2.08428 12.5373 2.2165V8.03817C12.5373 8.62928 12.3993 9.1815 12.1232 9.69484C11.8472 10.2082 11.4643 10.6282 10.9745 10.9548L7.28914 13.4165L3.60379 10.9548C3.11397 10.6282 2.73105 10.2082 2.45503 9.69484C2.17902 9.1815 2.04102 8.62928 2.04102 8.03817V2.2165C2.04102 2.08428 2.08378 1.96373 2.1693 1.85484C2.25483 1.74595 2.36368 1.67595 2.49585 1.64484L7.28914 0.583171ZM7.28914 1.77317L3.20727 2.68317V8.03817C3.20727 8.43484 3.29862 8.80428 3.48133 9.1465C3.66405 9.48873 3.91868 9.76873 4.24523 9.9865L7.28914 12.0165L10.3331 9.9865C10.6596 9.76873 10.9142 9.48873 11.0969 9.1465C11.2797 8.80428 11.371 8.43484 11.371 8.03817V2.68317L7.28914 1.77317ZM9.88988 4.79484L10.7063 5.62317L6.99758 9.33317L4.52513 6.85984L5.35317 6.0315L6.99758 7.68817L9.88988 4.79484Z" fill="#9CA3AF"/>
</svg>
