<svg width="17" height="16" viewBox="0 0 17 16" fill="none" xmlns="http://www.w3.org/2000/svg">
<path d="M8.32852 14.6665C7.42242 14.6665 6.55629 14.4932 5.73014 14.1465C4.93952 13.8087 4.23552 13.3309 3.61813 12.7132C3.00074 12.0954 2.52326 11.3909 2.18569 10.5998C1.83924 9.77317 1.66602 8.9065 1.66602 7.99984C1.66602 7.09317 1.83924 6.2265 2.18569 5.39984C2.52326 4.60873 3.00074 3.90428 3.61813 3.2865C4.23552 2.66873 4.93952 2.19095 5.73014 1.85317C6.55629 1.5065 7.42242 1.33317 8.32852 1.33317C9.23462 1.33317 10.1007 1.5065 10.9269 1.85317C11.7175 2.19095 12.4215 2.66873 13.0389 3.2865C13.6563 3.90428 14.1338 4.60873 14.4713 5.39984C14.8178 6.2265 14.991 7.09317 14.991 7.99984C14.991 8.9065 14.8178 9.77317 14.4713 10.5998C14.1338 11.3909 13.6563 12.0954 13.0389 12.7132C12.4215 13.3309 11.7175 13.8087 10.9269 14.1465C10.1007 14.4932 9.23462 14.6665 8.32852 14.6665ZM8.32852 13.3332C9.2968 13.3332 10.194 13.0887 11.0202 12.5998C11.8197 12.1287 12.4548 11.4932 12.9256 10.6932C13.4142 9.8665 13.6585 8.96873 13.6585 7.99984C13.6585 7.03095 13.4142 6.13317 12.9256 5.3065C12.4548 4.5065 11.8197 3.87095 11.0202 3.39984C10.194 2.91095 9.2968 2.6665 8.32852 2.6665C7.36023 2.6665 6.46302 2.91095 5.63687 3.39984C4.83737 3.87095 4.20221 4.5065 3.73139 5.3065C3.24281 6.13317 2.99852 7.03095 2.99852 7.99984C2.99852 8.96873 3.24281 9.8665 3.73139 10.6932C4.20221 11.4932 4.83737 12.1287 5.63687 12.5998C6.46302 13.0887 7.36023 13.3332 8.32852 13.3332ZM8.99477 7.99984H11.6598V9.33317H7.66227V4.6665H8.99477V7.99984Z" fill="#D97706"/>
</svg>
