<svg width="15" height="14" viewBox="0 0 15 14" fill="none" xmlns="http://www.w3.org/2000/svg">
<path d="M5.53977 1.16683H11.9541C12.1174 1.16683 12.2554 1.22322 12.3682 1.336C12.4809 1.44877 12.5373 1.58683 12.5373 1.75016V12.2502C12.5373 12.4135 12.4809 12.5516 12.3682 12.6643C12.2554 12.7771 12.1174 12.8335 11.9541 12.8335H2.62414C2.46087 12.8335 2.32286 12.7771 2.21012 12.6643C2.09738 12.5516 2.04102 12.4135 2.04102 12.2502V4.66683L5.53977 1.16683ZM3.68543 4.66683H5.53977V2.8235L3.68543 4.66683ZM6.70602 2.3335V5.25016C6.70602 5.4135 6.64965 5.55155 6.53691 5.66433C6.42417 5.77711 6.28617 5.8335 6.12289 5.8335H3.20727V11.6668H11.371V2.3335H6.70602Z" fill="#7A9E82" fill-opacity="0.6"/>
</svg>
