<svg width="15" height="14" viewBox="0 0 15 14" fill="none" xmlns="http://www.w3.org/2000/svg">
<path d="M7.51073 1.45817C7.61958 1.45817 7.72065 1.48734 7.81395 1.54567C7.90725 1.604 7.98112 1.68373 8.03554 1.78484L8.45539 2.62484H11.9541C12.1174 2.62484 12.2554 2.68123 12.3682 2.794C12.4809 2.90678 12.5373 3.04484 12.5373 3.20817V9.62484C12.5373 9.78817 12.4809 9.92623 12.3682 10.039C12.2554 10.1518 12.1174 10.2082 11.9541 10.2082H8.2338C8.12495 10.2082 8.02388 10.179 7.93058 10.1207C7.83728 10.0623 7.76342 9.98261 7.70899 9.8815L7.28914 9.0415H3.20727V12.5415H2.04102V1.45817H7.51073ZM7.14919 2.62484H3.20727V7.87484H8.01222L8.59534 9.0415H11.371V3.7915H7.73232L7.14919 2.62484Z" fill="#9CA3AF"/>
</svg>
