<svg width="17" height="16" viewBox="0 0 17 16" fill="none" xmlns="http://www.w3.org/2000/svg">
<path d="M8.32797 2.85349C8.8432 2.39127 9.43394 2.08682 10.1002 1.94016C10.7664 1.79349 11.4238 1.80904 12.0723 1.98682C12.7474 2.17349 13.3315 2.51349 13.8245 3.00682C14.3176 3.50016 14.6573 4.0846 14.8439 4.76016C15.0216 5.40905 15.0371 6.0646 14.8905 6.72682C14.744 7.38904 14.4397 7.98238 13.9778 8.50682L8.32797 14.1602L2.67817 8.50682C2.21623 7.98238 1.91198 7.38904 1.76541 6.72682C1.61883 6.0646 1.63438 5.40905 1.81204 4.76016C1.99859 4.0846 2.3406 3.50016 2.83807 3.00682C3.33553 2.51349 3.91739 2.17349 4.58364 1.98682C5.23213 1.80904 5.88949 1.79349 6.55574 1.94016C7.22199 2.08682 7.81273 2.39127 8.32797 2.85349ZM12.8718 3.94682C12.5431 3.61793 12.1611 3.39349 11.7258 3.27349C11.2906 3.15349 10.8508 3.14238 10.4067 3.24016C9.9625 3.33793 9.56719 3.54238 9.22074 3.85349L8.32797 4.65349L7.43519 3.85349C7.09763 3.54238 6.70454 3.33793 6.25593 3.24016C5.80732 3.14238 5.36538 3.15349 4.93009 3.27349C4.49481 3.39349 4.11283 3.61793 3.78414 3.94682C3.45546 4.27571 3.22893 4.65793 3.10457 5.09349C2.9802 5.52905 2.96466 5.96682 3.05793 6.40682C3.15121 6.84682 3.34886 7.24016 3.65089 7.58682L8.32797 12.2802L13.005 7.58682C13.3071 7.24016 13.5047 6.84682 13.598 6.40682C13.6913 5.96682 13.6757 5.52905 13.5514 5.09349C13.427 4.65793 13.2005 4.27571 12.8718 3.94682Z" fill="#F43F5E"/>
</svg>
