<svg width="17" height="16" viewBox="0 0 17 16" fill="none" xmlns="http://www.w3.org/2000/svg">
<path d="M12.9923 14.6665H3.66477C3.30055 14.6665 2.9652 14.5776 2.65873 14.3998C2.35225 14.2221 2.11018 13.9798 1.93252 13.6732C1.75485 13.3665 1.66602 13.0309 1.66602 12.6665V1.99984C1.66602 1.81317 1.73042 1.65539 1.85923 1.5265C1.98804 1.39762 2.14572 1.33317 2.33227 1.33317H11.6598C11.8463 1.33317 12.004 1.39762 12.1328 1.5265C12.2616 1.65539 12.326 1.81317 12.326 1.99984V9.99984H14.991V12.6665C14.991 13.0309 14.9022 13.3665 14.7245 13.6732C14.5468 13.9798 14.3048 14.2221 13.9983 14.3998C13.6918 14.5776 13.3565 14.6665 12.9923 14.6665ZM12.326 11.3332V12.6665C12.326 12.8532 12.3904 13.0109 12.5192 13.1398C12.648 13.2687 12.8057 13.3332 12.9923 13.3332C13.1788 13.3332 13.3365 13.2687 13.4653 13.1398C13.5941 13.0109 13.6585 12.8532 13.6585 12.6665V11.3332H12.326ZM10.9935 13.3332V2.6665H2.99852V12.6665C2.99852 12.8532 3.06292 13.0109 3.19173 13.1398C3.32054 13.2687 3.47822 13.3332 3.66477 13.3332H10.9935ZM4.33102 4.6665H9.66102V5.99984H4.33102V4.6665ZM4.33102 7.33317H9.66102V8.6665H4.33102V7.33317ZM4.33102 9.99984H7.66227V11.3332H4.33102V9.99984Z" fill="#D97706"/>
</svg>
