<svg width="17" height="16" viewBox="0 0 17 16" fill="none" xmlns="http://www.w3.org/2000/svg">
<path d="M1.33203 15C1.33203 14.0311 1.57632 13.1333 2.06491 12.3067C2.53572 11.5067 3.17088 10.8711 3.97038 10.4C4.79653 9.91111 5.69375 9.66667 6.66203 9.66667C7.63031 9.66667 8.52753 9.91111 9.35368 10.4C10.1532 10.8711 10.7883 11.5067 11.2592 12.3067C11.7477 13.1333 11.992 14.0311 11.992 15H10.6595C10.6595 14.28 10.4774 13.6089 10.1132 12.9867C9.75787 12.3822 9.27817 11.9022 8.67411 11.5467C8.05227 11.1822 7.38158 11 6.66203 11C5.94248 11 5.27179 11.1822 4.64996 11.5467C4.04589 11.9022 3.56619 12.3822 3.21086 12.9867C2.84664 13.6089 2.66453 14.28 2.66453 15H1.33203ZM6.66203 9C5.9336 9 5.26291 8.81778 4.64996 8.45333C4.04589 8.09778 3.56619 7.61778 3.21086 7.01333C2.84664 6.4 2.66453 5.72889 2.66453 5C2.66453 4.27111 2.84664 3.6 3.21086 2.98667C3.56619 2.38222 4.04589 1.90222 4.64996 1.54667C5.26291 1.18222 5.9336 1 6.66203 1C7.39046 1 8.06116 1.18222 8.67411 1.54667C9.27817 1.90222 9.75787 2.38222 10.1132 2.98667C10.4774 3.6 10.6595 4.27111 10.6595 5C10.6595 5.72889 10.4774 6.4 10.1132 7.01333C9.75787 7.61778 9.27817 8.09778 8.67411 8.45333C8.06116 8.81778 7.39046 9 6.66203 9ZM6.66203 7.66667C7.14173 7.66667 7.5859 7.54667 7.99453 7.30667C8.40316 7.06667 8.72741 6.74222 8.96726 6.33333C9.20711 5.92444 9.32703 5.48 9.32703 5C9.32703 4.52 9.20711 4.07555 8.96726 3.66667C8.72741 3.25778 8.40316 2.93333 7.99453 2.69333C7.5859 2.45333 7.14173 2.33333 6.66203 2.33333C6.18233 2.33333 5.73816 2.45333 5.32953 2.69333C4.9209 2.93333 4.59666 3.25778 4.35681 3.66667C4.11696 4.07555 3.99703 4.52 3.99703 5C3.99703 5.48 4.11696 5.92444 4.35681 6.33333C4.59666 6.74222 4.9209 7.06667 5.32953 7.30667C5.73816 7.54667 6.18233 7.66667 6.66203 7.66667ZM12.1786 10.1333C12.8004 10.4089 13.349 10.7933 13.8242 11.2867C14.2995 11.78 14.6659 12.3378 14.9235 12.96C15.19 13.6089 15.3233 14.2889 15.3233 15H13.9908C13.9908 14.2 13.7731 13.4667 13.3379 12.8C12.9115 12.1511 12.3429 11.6667 11.6323 11.3467L12.1786 10.1333ZM11.7255 2.61333C12.4007 2.88889 12.947 3.33333 13.3645 3.94667C13.782 4.56 13.9908 5.24444 13.9908 6C13.9908 6.63111 13.8442 7.21556 13.5511 7.75333C13.2579 8.29111 12.8559 8.72889 12.3451 9.06667C11.8344 9.40444 11.2725 9.6 10.6595 9.65333V8.30667C11.0326 8.25333 11.3724 8.11778 11.6789 7.9C11.9854 7.68222 12.2252 7.40667 12.3984 7.07333C12.5717 6.74 12.6583 6.38222 12.6583 6C12.6583 5.54667 12.5384 5.13333 12.2985 4.76C12.0587 4.38667 11.7433 4.10222 11.3524 3.90667L11.7255 2.61333Z" fill="#7A9E82"/>
</svg>
