<svg width="17" height="16" viewBox="0 0 17 16" fill="none" xmlns="http://www.w3.org/2000/svg">
<path d="M9.99328 2.95984C10.2864 2.95984 10.5574 2.8865 10.8061 2.73984C11.0548 2.59317 11.2525 2.39539 11.3991 2.1465C11.5456 1.89762 11.6189 1.6265 11.6189 1.33317H12.3651C12.3651 1.6265 12.4384 1.89762 12.585 2.1465C12.7316 2.39539 12.9292 2.59317 13.178 2.73984C13.4267 2.8865 13.6976 2.95984 13.9908 2.95984V3.7065C13.6976 3.7065 13.4267 3.77984 13.178 3.9265C12.9292 4.07317 12.7316 4.27095 12.585 4.51984C12.4384 4.76873 12.3651 5.03984 12.3651 5.33317H11.6189C11.6189 5.03984 11.5456 4.76873 11.3991 4.51984C11.2525 4.27095 11.0548 4.07317 10.8061 3.9265C10.5574 3.77984 10.2864 3.7065 9.99328 3.7065V2.95984ZM1.33203 7.33317C2.05158 7.33317 2.72227 7.15095 3.34411 6.7865C3.94817 6.43095 4.42787 5.95095 4.78321 5.3465C5.14742 4.72428 5.32953 4.05317 5.32953 3.33317H6.66203C6.66203 4.05317 6.84414 4.72428 7.20836 5.3465C7.56369 5.95095 8.04339 6.43095 8.64746 6.7865C9.26929 7.15095 9.93998 7.33317 10.6595 7.33317V8.6665C9.93998 8.6665 9.26929 8.84873 8.64746 9.21317C8.04339 9.56873 7.56369 10.0487 7.20836 10.6532C6.84414 11.2754 6.66203 11.9465 6.66203 12.6665H5.32953C5.32953 11.9465 5.14742 11.2754 4.78321 10.6532C4.42787 10.0487 3.94817 9.56873 3.34411 9.21317C2.72227 8.84873 2.05158 8.6665 1.33203 8.6665V7.33317ZM3.91708 7.99984C4.35236 8.23984 4.74767 8.53762 5.10301 8.89317C5.45834 9.24873 5.75593 9.64428 5.99578 10.0798C6.23563 9.64428 6.53322 9.24873 6.88856 8.89317C7.24389 8.53762 7.6392 8.23984 8.07448 7.99984C7.6392 7.75984 7.24389 7.46206 6.88856 7.1065C6.53322 6.75095 6.23563 6.35539 5.99578 5.91984C5.75593 6.35539 5.45834 6.75095 5.10301 7.1065C4.74767 7.46206 4.35236 7.75984 3.91708 7.99984ZM12.1653 9.33317C12.1653 9.72428 12.0675 10.0865 11.8721 10.4198C11.6767 10.7532 11.4124 11.0176 11.0793 11.2132C10.7461 11.4087 10.3841 11.5021 9.99328 11.4932V12.4932C10.3841 12.4932 10.7461 12.5909 11.0793 12.7865C11.4124 12.9821 11.6745 13.2465 11.8654 13.5798C12.0564 13.9132 12.1519 14.2754 12.1519 14.6665H13.1646C13.1557 14.2754 13.249 13.9132 13.4445 13.5798C13.6399 13.2465 13.9042 12.9821 14.2373 12.7865C14.5704 12.5909 14.9324 12.4932 15.3233 12.4932V11.4932C14.9324 11.4932 14.5704 11.3976 14.2373 11.2065C13.9042 11.0154 13.6399 10.7532 13.4445 10.4198C13.249 10.0865 13.1557 9.72428 13.1646 9.33317H12.1653Z" fill="#7A9E82"/>
</svg>
