<svg width="22" height="19" viewBox="0 0 22 19" fill="none" xmlns="http://www.w3.org/2000/svg">
<path d="M0 12.5C0 11.3533 0.28 10.2867 0.84 9.3C1.38667 8.34 2.12667 7.56667 3.06 6.98C3.23333 5.68667 3.69 4.50667 4.43 3.44C5.17 2.37333 6.10667 1.54 7.24 0.940001C8.41333 0.313334 9.66667 0 11 0C12.3333 0 13.5867 0.313334 14.76 0.940001C15.8933 1.54 16.83 2.37333 17.57 3.44C18.31 4.50667 18.7667 5.68667 18.94 6.98C19.8733 7.56667 20.6133 8.34 21.16 9.3C21.72 10.2867 22 11.3467 22 12.48C22 13.6133 21.7333 14.6667 21.2 15.64C20.6667 16.5867 19.9433 17.36 19.03 17.96C18.1167 18.56 17.1067 18.9 16 18.98L6 19C4.89333 18.9067 3.88333 18.56 2.97 17.96C2.05667 17.36 1.33333 16.5867 0.8 15.64C0.266667 14.6667 0 13.62 0 12.5ZM15.84 16.98C16.6133 16.9267 17.3167 16.6933 17.95 16.28C18.5833 15.8667 19.0833 15.3267 19.45 14.66C19.8167 13.9933 20 13.27 20 12.49C20 11.71 19.81 10.9833 19.43 10.31C19.05 9.63667 18.5333 9.09333 17.88 8.68L17.08 8.18L16.96 7.24C16.8267 6.25333 16.48 5.36333 15.92 4.57C15.36 3.77667 14.65 3.15 13.79 2.69C12.93 2.23 12 2 11 2C10 2 9.07 2.23 8.21 2.69C7.35 3.15 6.64 3.77667 6.08 4.57C5.52 5.36333 5.17333 6.25333 5.04 7.24L4.92 8.18L4.12 8.68C3.46667 9.09333 2.95 9.63667 2.57 10.31C2.19 10.9833 2 11.71 2 12.49C2 13.27 2.18333 13.9933 2.55 14.66C2.91667 15.3267 3.41667 15.8667 4.05 16.28C4.68333 16.6933 5.38667 16.9267 6.16 16.98L6.32 17H15.68L15.84 16.98ZM12 11V15H10V11H7L11 6L15 11H12Z" fill="#7A9E82" fill-opacity="0.5"/>
</svg>
