<svg width="19" height="18" viewBox="0 0 19 18" fill="none" xmlns="http://www.w3.org/2000/svg">
<path d="M11.25 3.33C11.58 3.33 11.885 3.2475 12.165 3.0825C12.445 2.9175 12.6675 2.695 12.8325 2.415C12.9975 2.135 13.08 1.83 13.08 1.5H13.92C13.92 1.83 14.0025 2.135 14.1675 2.415C14.3325 2.695 14.555 2.9175 14.835 3.0825C15.115 3.2475 15.42 3.33 15.75 3.33V4.17C15.42 4.17 15.115 4.2525 14.835 4.4175C14.555 4.5825 14.3325 4.805 14.1675 5.085C14.0025 5.365 13.92 5.67 13.92 6H13.08C13.08 5.67 12.9975 5.365 12.8325 5.085C12.6675 4.805 12.445 4.5825 12.165 4.4175C11.885 4.2525 11.58 4.17 11.25 4.17V3.33ZM1.5 8.25C2.31 8.25 3.065 8.045 3.765 7.635C4.445 7.235 4.985 6.695 5.385 6.015C5.795 5.315 6 4.56 6 3.75H7.5C7.5 4.56 7.705 5.315 8.115 6.015C8.515 6.695 9.055 7.235 9.735 7.635C10.435 8.045 11.19 8.25 12 8.25V9.75C11.19 9.75 10.435 9.955 9.735 10.365C9.055 10.765 8.515 11.305 8.115 11.985C7.705 12.685 7.5 13.44 7.5 14.25H6C6 13.44 5.795 12.685 5.385 11.985C4.985 11.305 4.445 10.765 3.765 10.365C3.065 9.955 2.31 9.75 1.5 9.75V8.25ZM4.41 9C4.9 9.27 5.345 9.605 5.745 10.005C6.145 10.405 6.48 10.85 6.75 11.34C7.02 10.85 7.355 10.405 7.755 10.005C8.155 9.605 8.6 9.27 9.09 9C8.6 8.73 8.155 8.395 7.755 7.995C7.355 7.595 7.02 7.15 6.75 6.66C6.48 7.15 6.145 7.595 5.745 7.995C5.345 8.395 4.9 8.73 4.41 9ZM13.695 10.5C13.695 10.94 13.585 11.3475 13.365 11.7225C13.145 12.0975 12.8475 12.395 12.4725 12.615C12.0975 12.835 11.69 12.94 11.25 12.93V14.055C11.69 14.055 12.0975 14.165 12.4725 14.385C12.8475 14.605 13.1425 14.9025 13.3575 15.2775C13.5725 15.6525 13.68 16.06 13.68 16.5H14.82C14.81 16.06 14.915 15.6525 15.135 15.2775C15.355 14.9025 15.6525 14.605 16.0275 14.385C16.4025 14.165 16.81 14.055 17.25 14.055V12.93C16.81 12.93 16.4025 12.8225 16.0275 12.6075C15.6525 12.3925 15.355 12.0975 15.135 11.7225C14.915 11.3475 14.81 10.94 14.82 10.5H13.695Z" fill="#F59E0B"/>
</svg>
