<svg width="312" height="354" viewBox="0 0 312 354" fill="none" xmlns="http://www.w3.org/2000/svg">
<rect width="312" height="354" fill="white"/>
<circle cx="156" cy="177" r="60" fill="#7A9E82" fill-opacity="0.4"/>
<circle cx="156" cy="177" r="85" fill="#7A9E82" fill-opacity="0.2"/>
<path d="M106 149C106 135.745 116.745 125 130 125H182C195.255 125 206 135.745 206 149V205C206 218.255 195.255 229 182 229H130C116.745 229 106 218.255 106 205V149Z" fill="#2D6649"/>
<path d="M158 186.88V191H168V195H144V191H154V186.88C151.387 186.56 149.013 185.653 146.88 184.16C144.747 182.667 143.08 180.787 141.88 178.52C140.627 176.173 140 173.667 140 171V159H172V171C172 173.667 171.373 176.173 170.12 178.52C168.92 180.787 167.253 182.667 165.12 184.16C162.987 185.653 160.613 186.56 158 186.88ZM144 163V171C144 173.16 144.547 175.173 145.64 177.04C146.707 178.853 148.147 180.293 149.96 181.36C151.827 182.453 153.84 183 156 183C158.16 183 160.173 182.453 162.04 181.36C163.853 180.293 165.293 178.853 166.36 177.04C167.453 175.173 168 173.16 168 171V163H144ZM134 163H138V171H134V163ZM174 163H178V171H174V163Z" fill="#F3F4F5"/>
<circle cx="43" cy="280" r="10" fill="#7A9E82"/>
<circle cx="254" cy="47" r="13" fill="#7A9E82" fill-opacity="0.77"/>
<circle cx="289" cy="184" r="7" fill="#2D6649" fill-opacity="0.92"/>
</svg>
