<svg width="312" height="354" viewBox="0 0 312 354" fill="none" xmlns="http://www.w3.org/2000/svg">
<rect width="312" height="354" fill="white"/>
<circle cx="156" cy="177" r="60" fill="#7A9E82" fill-opacity="0.4"/>
<circle cx="156" cy="177" r="85" fill="#7A9E82" fill-opacity="0.2"/>
<path d="M106 149C106 135.745 116.745 125 130 125H182C195.255 125 206 135.745 206 149V205C206 218.255 195.255 229 182 229H130C116.745 229 106 218.255 106 205V149Z" fill="#2D6649"/>
<path d="M172 194.64C172 195.2 171.807 195.673 171.42 196.06C171.033 196.447 170.56 196.64 170 196.64H142C141.44 196.64 140.967 196.447 140.58 196.06C140.193 195.673 140 195.2 140 194.64V176.64H134L154.64 157.88C155.04 157.533 155.493 157.36 156 157.36C156.507 157.36 156.96 157.533 157.36 157.88L178 176.64H172V194.64ZM168 192.64V172.96L156 162.04L144 172.96V192.64H168ZM156 188.64L149.28 181.92C148.693 181.36 148.3 180.693 148.1 179.92C147.9 179.147 147.9 178.373 148.1 177.6C148.3 176.827 148.693 176.153 149.28 175.58C149.867 175.007 150.547 174.613 151.32 174.4C152.093 174.187 152.867 174.187 153.64 174.4C154.413 174.613 155.08 175 155.64 175.56L156 175.92L156.36 175.56C156.92 175 157.587 174.613 158.36 174.4C159.133 174.187 159.907 174.187 160.68 174.4C161.453 174.613 162.133 175.007 162.72 175.58C163.307 176.153 163.7 176.827 163.9 177.6C164.1 178.373 164.1 179.147 163.9 179.92C163.7 180.693 163.307 181.36 162.72 181.92L156 188.64Z" fill="#F3F4F6"/>
<circle cx="43" cy="280" r="10" fill="#7A9E82"/>
<circle cx="254" cy="47" r="13" fill="#7A9E82" fill-opacity="0.77"/>
<circle cx="289" cy="184" r="7" fill="#2D6649" fill-opacity="0.92"/>
</svg>
