<svg width="312" height="354" viewBox="0 0 312 354" fill="none" xmlns="http://www.w3.org/2000/svg">
<rect width="312" height="354" fill="white"/>
<circle cx="156" cy="177" r="60" fill="#7A9E82" fill-opacity="0.4"/>
<circle cx="156" cy="177" r="85" fill="#7A9E82" fill-opacity="0.2"/>
<path d="M106 149C106 135.745 116.745 125 130 125H182C195.255 125 206 135.745 206 149V205C206 218.255 195.255 229 182 229H130C116.745 229 106 218.255 106 205V149Z" fill="#2D6649"/>
<path d="M156 155L172.44 158.64C172.893 158.747 173.267 158.987 173.56 159.36C173.853 159.733 174 160.147 174 160.6V180.56C174 182.587 173.527 184.48 172.58 186.24C171.633 188 170.32 189.44 168.64 190.56L156 199L143.36 190.56C141.68 189.44 140.367 188 139.42 186.24C138.473 184.48 138 182.587 138 180.56V160.6C138 160.147 138.147 159.733 138.44 159.36C138.733 158.987 139.107 158.747 139.56 158.64L156 155ZM156 159.08L142 162.2V180.56C142 181.92 142.313 183.187 142.94 184.36C143.567 185.533 144.44 186.493 145.56 187.24L156 194.2L166.44 187.24C167.56 186.493 168.433 185.533 169.06 184.36C169.687 183.187 170 181.92 170 180.56V162.2L156 159.08ZM164.92 169.44L167.72 172.28L155 185L146.52 176.52L149.36 173.68L155 179.36L164.92 169.44Z" fill="#F3F4F6"/>
<circle cx="43" cy="280" r="10" fill="#7A9E82"/>
<circle cx="254" cy="47" r="13" fill="#7A9E82" fill-opacity="0.77"/>
<circle cx="289" cy="184" r="7" fill="#2D6649" fill-opacity="0.92"/>
</svg>
