<svg width="312" height="354" viewBox="0 0 312 354" fill="none" xmlns="http://www.w3.org/2000/svg">
<rect width="312" height="354" fill="white"/>
<circle cx="156" cy="177" r="60" fill="#7A9E82" fill-opacity="0.4"/>
<circle cx="156" cy="177" r="85" fill="#7A9E82" fill-opacity="0.2"/>
<path d="M106 149C106 135.745 116.745 125 130 125H182C195.255 125 206 135.745 206 149V205C206 218.255 195.255 229 182 229H130C116.745 229 106 218.255 106 205V149Z" fill="#2D6649"/>
<path d="M143.52 185.48H172V161.48H140V188.28L143.52 185.48ZM144.92 189.48L136 196.48V159.48C136 158.947 136.193 158.48 136.58 158.08C136.967 157.68 137.44 157.48 138 157.48H174C174.56 157.48 175.033 157.68 175.42 158.08C175.807 158.48 176 158.947 176 159.48V187.48C176 188.04 175.807 188.52 175.42 188.92C175.033 189.32 174.56 189.507 174 189.48H144.92ZM154 179.48H158V183.48H154V179.48ZM149.12 169.12C149.333 168.053 149.773 167.093 150.44 166.24C151.107 165.387 151.92 164.713 152.88 164.22C153.84 163.727 154.88 163.48 156 163.48C157.28 163.507 158.453 163.833 159.52 164.46C160.587 165.087 161.433 165.933 162.06 167C162.687 168.067 163 169.233 163 170.5C163 171.767 162.687 172.933 162.06 174C161.433 175.067 160.587 175.92 159.52 176.56C158.453 177.2 157.28 177.52 156 177.52H154V173.48H156C156.827 173.48 157.533 173.193 158.12 172.62C158.707 172.047 159 171.34 159 170.5C159 169.66 158.707 168.953 158.12 168.38C157.533 167.807 156.827 167.52 156 167.52C155.28 167.52 154.647 167.747 154.1 168.2C153.553 168.653 153.2 169.227 153.04 169.92L149.12 169.12Z" fill="#F3F4F5"/>
<circle cx="43" cy="280" r="10" fill="#7A9E82"/>
<circle cx="254" cy="47" r="13" fill="#7A9E82" fill-opacity="0.77"/>
<circle cx="289" cy="184" r="7" fill="#2D6649" fill-opacity="0.92"/>
</svg>
