<svg width="19" height="18" viewBox="0 0 19 18" fill="none" xmlns="http://www.w3.org/2000/svg">
<path d="M9.375 0.75L15.54 2.115C15.71 2.155 15.85 2.245 15.96 2.385C16.07 2.525 16.125 2.68 16.125 2.85V10.335C16.125 11.095 15.9475 11.805 15.5925 12.465C15.2375 13.125 14.745 13.665 14.115 14.085L9.375 17.25L4.635 14.085C4.005 13.665 3.5125 13.125 3.1575 12.465C2.8025 11.805 2.625 11.095 2.625 10.335V2.85C2.625 2.68 2.68 2.525 2.79 2.385C2.9 2.245 3.04 2.155 3.21 2.115L9.375 0.75ZM9.375 2.28L4.125 3.45V10.335C4.125 10.845 4.2425 11.32 4.4775 11.76C4.7125 12.2 5.04 12.56 5.46 12.84L9.375 15.45L13.29 12.84C13.71 12.56 14.0375 12.2 14.2725 11.76C14.5075 11.32 14.625 10.845 14.625 10.335V3.45L9.375 2.28ZM12.72 6.165L13.77 7.23L9 12L5.82 8.82L6.885 7.755L9 9.885L12.72 6.165Z" fill="#7A9E82"/>
</svg>
