<svg width="20" height="19" viewBox="0 0 20 19" fill="none" xmlns="http://www.w3.org/2000/svg">
<path d="M9.99918 1.519C10.7725 0.82567 11.6592 0.369003 12.6592 0.149002C13.6592 -0.0709972 14.6458 -0.0476646 15.6192 0.219002C16.6325 0.499002 17.5092 1.009 18.2492 1.749C18.9892 2.489 19.4992 3.36567 19.7792 4.379C20.0458 5.35234 20.0692 6.33567 19.8492 7.329C19.6292 8.32234 19.1725 9.21234 18.4792 9.999L9.99918 18.479L1.51918 9.999C0.825845 9.21234 0.369178 8.32234 0.149178 7.329C-0.0708219 6.33567 -0.0474886 5.35234 0.219178 4.379C0.499178 3.36567 1.01251 2.489 1.75918 1.749C2.50584 1.009 3.37918 0.499002 4.37918 0.219002C5.35251 -0.0476646 6.33918 -0.0709972 7.33918 0.149002C8.33918 0.369003 9.22584 0.82567 9.99918 1.519ZM16.8192 3.159C16.3258 2.66567 15.7525 2.329 15.0992 2.149C14.4458 1.969 13.7858 1.95234 13.1192 2.099C12.4525 2.24567 11.8592 2.55234 11.3392 3.019L9.99918 4.219L8.65918 3.019C8.15251 2.55234 7.56251 2.24567 6.88918 2.099C6.21584 1.95234 5.55251 1.969 4.89918 2.149C4.24584 2.329 3.67251 2.66567 3.17918 3.159C2.68584 3.65234 2.34584 4.22567 2.15918 4.879C1.97251 5.53234 1.94918 6.189 2.08918 6.849C2.22918 7.509 2.52584 8.099 2.97918 8.619L9.99918 15.659L17.0192 8.619C17.4725 8.099 17.7692 7.509 17.9092 6.849C18.0492 6.189 18.0258 5.53234 17.8392 4.879C17.6525 4.22567 17.3125 3.65234 16.8192 3.159Z" fill="#7A9E82"/>
</svg>
