<svg width="21" height="20" viewBox="0 0 21 20" fill="none" xmlns="http://www.w3.org/2000/svg">
<path d="M15.313 13.7168L18.8788 17.2835L17.6958 18.4668L14.13 14.9001C13.4746 15.4224 12.7581 15.8224 11.9805 16.1001C11.1585 16.389 10.3143 16.5335 9.44783 16.5335C8.09262 16.5335 6.83182 16.1946 5.66544 15.5168C4.53239 14.8501 3.63817 13.9501 2.98278 12.8168C2.29407 11.6501 1.94971 10.389 1.94971 9.03346C1.94971 7.67791 2.29407 6.4168 2.98278 5.25013C3.63817 4.1168 4.53239 3.22235 5.66544 2.5668C6.83182 1.87791 8.09262 1.53346 9.44783 1.53346C10.803 1.53346 12.0638 1.87791 13.2302 2.5668C14.3633 3.22235 15.263 4.1168 15.9295 5.25013C16.6072 6.4168 16.946 7.67791 16.946 9.03346C16.946 9.90013 16.8015 10.7446 16.5127 11.5668C16.235 12.3446 15.8351 13.0612 15.313 13.7168ZM13.6301 13.1001C14.1522 12.5668 14.5577 11.9557 14.8465 11.2668C15.1353 10.5557 15.2797 9.81124 15.2797 9.03346C15.2797 7.97791 15.0131 6.99458 14.4799 6.08346C13.9689 5.20569 13.2747 4.51124 12.3971 4.00013C11.4862 3.4668 10.5031 3.20013 9.44783 3.20013C8.39254 3.20013 7.40945 3.4668 6.49857 4.00013C5.62101 4.51124 4.92674 5.20569 4.41576 6.08346C3.88256 6.99458 3.61596 7.97791 3.61596 9.03346C3.61596 10.089 3.88256 11.0724 4.41576 11.9835C4.92674 12.8612 5.62101 13.5557 6.49857 14.0668C7.40945 14.6001 8.39254 14.8668 9.44783 14.8668C10.2254 14.8668 10.9697 14.7224 11.6806 14.4335C12.3693 14.1446 12.9803 13.739 13.5135 13.2168L13.6301 13.1001Z" fill="#9CA3AF"/>
</svg>
