<svg width="20" height="20" viewBox="0 0 20 20" fill="none" xmlns="http://www.w3.org/2000/svg">
<path d="M3.33349 3.33337L16.6668 16.6667M13.7502 13.9633C12.623 14.5705 11.349 14.9999 10.0002 14.9999C7.05794 14.9999 4.47211 12.9566 2.98925 11.4824C2.59783 11.0933 2.40215 10.8987 2.27758 10.5168C2.18874 10.2444 2.18871 9.75551 2.27758 9.48316C2.40219 9.10126 2.59827 8.90625 2.99047 8.51643C3.73787 7.77355 4.76525 6.88637 5.97707 6.18901M16.2502 12.1946C16.5277 11.9505 16.7819 11.7103 17.01 11.4836L17.0124 11.4811C17.4029 11.0929 17.5987 10.8983 17.7231 10.5172C17.8119 10.2449 17.8118 9.75574 17.7229 9.48337C17.5984 9.1016 17.4025 8.9065 17.0113 8.51763C15.5284 7.04344 12.9424 5.00004 10.0002 5.00004C9.7189 5.00004 9.44091 5.01871 9.16682 5.05377M11.1026 11.25C10.8088 11.5094 10.4228 11.6667 10.0002 11.6667C9.07968 11.6667 8.33349 10.9205 8.33349 10C8.33349 9.55045 8.5115 9.14261 8.80089 8.84281" stroke="#9CA3AF" stroke-width="2" stroke-linecap="round" stroke-linejoin="round"/>
</svg>
