<svg width="19" height="18" viewBox="0 0 19 18" fill="none" xmlns="http://www.w3.org/2000/svg">
<path d="M9.37477 2.25C10.6948 2.25 11.9448 2.55 13.1248 3.15C14.2548 3.73 15.2073 4.5325 15.9823 5.5575C16.7573 6.5825 17.2598 7.73 17.4898 9C17.2598 10.27 16.7573 11.4175 15.9823 12.4425C15.2073 13.4675 14.2548 14.27 13.1248 14.85C11.9448 15.45 10.6948 15.75 9.37477 15.75C8.05477 15.75 6.80477 15.45 5.62477 14.85C4.49477 14.27 3.54227 13.4675 2.76727 12.4425C1.99227 11.4175 1.48977 10.27 1.25977 9C1.48977 7.73 1.99227 6.5825 2.76727 5.5575C3.54227 4.5325 4.49477 3.73 5.62477 3.15C6.80477 2.55 8.05477 2.25 9.37477 2.25ZM9.37477 14.25C10.4148 14.25 11.4048 14.02 12.3448 13.56C13.2548 13.12 14.0273 12.5 14.6623 11.7C15.2973 10.9 15.7298 10 15.9598 9C15.7298 8 15.2973 7.1 14.6623 6.3C14.0273 5.5 13.2548 4.88 12.3448 4.44C11.4048 3.98 10.4148 3.75 9.37477 3.75C8.33477 3.75 7.34477 3.98 6.40477 4.44C5.49477 4.88 4.72227 5.5 4.08727 6.3C3.45227 7.1 3.01977 8 2.78977 9C3.01977 10 3.45227 10.9 4.08727 11.7C4.72227 12.5 5.49477 13.12 6.40477 13.56C7.34477 14.02 8.33477 14.25 9.37477 14.25ZM9.37477 12.375C8.76477 12.375 8.20227 12.2225 7.68727 11.9175C7.17227 11.6125 6.76227 11.2025 6.45727 10.6875C6.15227 10.1725 5.99977 9.61 5.99977 9C5.99977 8.39 6.15227 7.8275 6.45727 7.3125C6.76227 6.7975 7.17227 6.3875 7.68727 6.0825C8.20227 5.7775 8.76477 5.625 9.37477 5.625C9.98477 5.625 10.5473 5.7775 11.0623 6.0825C11.5773 6.3875 11.9873 6.7975 12.2923 7.3125C12.5973 7.8275 12.7498 8.39 12.7498 9C12.7498 9.61 12.5973 10.1725 12.2923 10.6875C11.9873 11.2025 11.5773 11.6125 11.0623 11.9175C10.5473 12.2225 9.98477 12.375 9.37477 12.375ZM9.37477 10.875C9.71477 10.875 10.0273 10.79 10.3123 10.62C10.5973 10.45 10.8248 10.2225 10.9948 9.9375C11.1648 9.6525 11.2498 9.34 11.2498 9C11.2498 8.66 11.1648 8.3475 10.9948 8.0625C10.8248 7.7775 10.5973 7.55 10.3123 7.38C10.0273 7.21 9.71477 7.125 9.37477 7.125C9.03477 7.125 8.72227 7.21 8.43727 7.38C8.15227 7.55 7.92477 7.7775 7.75477 8.0625C7.58477 8.3475 7.49977 8.66 7.49977 9C7.49977 9.34 7.58477 9.6525 7.75477 9.9375C7.92477 10.2225 8.15227 10.45 8.43727 10.62C8.72227 10.79 9.03477 10.875 9.37477 10.875Z" fill="#9CA3AF"/>
</svg>
