<svg width="17" height="16" viewBox="0 0 17 16" fill="none" xmlns="http://www.w3.org/2000/svg">
<path d="M2.33227 2H14.3248C14.5113 2 14.669 2.06444 14.7978 2.19333C14.9266 2.32222 14.991 2.48 14.991 2.66667V13.3333C14.991 13.52 14.9266 13.6778 14.7978 13.8067C14.669 13.9356 14.5113 14 14.3248 14H2.33227C2.14572 14 1.98804 13.9356 1.85923 13.8067C1.73042 13.6778 1.66602 13.52 1.66602 13.3333V2.66667C1.66602 2.48 1.73042 2.32222 1.85923 2.19333C1.98804 2.06444 2.14572 2 2.33227 2ZM13.6585 4.82667L8.38182 9.56L2.99852 4.81333V12.6667H13.6585V4.82667ZM3.34497 3.33333L8.36849 7.77333L13.3254 3.33333H3.34497Z" fill="#7A9E82"/>
</svg>
