<svg width="12" height="16" viewBox="0 0 12 16" fill="none" xmlns="http://www.w3.org/2000/svg">
<path d="M0.75 -0.000131607H11.25C11.46 -0.000131607 11.6375 0.0723696 11.7825 0.217369C11.9275 0.36237 12 0.539869 12 0.749869V15.1049C12 15.2049 11.9625 15.2924 11.8875 15.3674C11.8125 15.4424 11.725 15.4799 11.625 15.4799C11.555 15.4799 11.49 15.4599 11.43 15.4199L6 12.0149L0.57 15.4199C0.49 15.4799 0.3975 15.4974 0.2925 15.4724C0.1875 15.4474 0.11 15.3899 0.06 15.2999C0.02 15.2399 0 15.1749 0 15.1049V0.749869C0 0.539869 0.0725 0.36237 0.2175 0.217369C0.3625 0.0723696 0.54 -0.000131607 0.75 -0.000131607Z" fill="#7A9E82"/>
</svg>
