<svg width="15" height="14" viewBox="0 0 15 14" fill="none" xmlns="http://www.w3.org/2000/svg">
<path d="M5.53988 1.16634V2.33301H9.03863V1.16634H10.2049V2.33301H12.5374C12.7007 2.33301 12.8387 2.3894 12.9514 2.50217C13.0641 2.61495 13.1205 2.75301 13.1205 2.91634V12.2497C13.1205 12.413 13.0641 12.5511 12.9514 12.6638C12.8387 12.7766 12.7007 12.833 12.5374 12.833H2.04113C1.87786 12.833 1.73985 12.7766 1.62711 12.6638C1.51438 12.5511 1.45801 12.413 1.45801 12.2497V2.91634C1.45801 2.75301 1.51438 2.61495 1.62711 2.50217C1.73985 2.3894 1.87786 2.33301 2.04113 2.33301H4.37363V1.16634H5.53988ZM11.9543 6.99967H2.62426V11.6663H11.9543V6.99967ZM4.95676 8.16634V9.33301H3.79051V8.16634H4.95676ZM7.87238 8.16634V9.33301H6.70613V8.16634H7.87238ZM10.788 8.16634V9.33301H9.62176V8.16634H10.788ZM4.37363 3.49967H2.62426V5.83301H11.9543V3.49967H10.2049V4.66634H9.03863V3.49967H5.53988V4.66634H4.37363V3.49967Z" fill="#607E68"/>
</svg>
