<svg width="19" height="18" viewBox="0 0 19 18" fill="none" xmlns="http://www.w3.org/2000/svg">
<path d="M13.875 6.375H15.375C15.585 6.375 15.7625 6.4475 15.9075 6.5925C16.0525 6.7375 16.125 6.915 16.125 7.125V16.125C16.125 16.335 16.0525 16.5125 15.9075 16.6575C15.7625 16.8025 15.585 16.875 15.375 16.875H3.375C3.165 16.875 2.9875 16.8025 2.8425 16.6575C2.6975 16.5125 2.625 16.335 2.625 16.125V7.125C2.625 6.915 2.6975 6.7375 2.8425 6.5925C2.9875 6.4475 3.165 6.375 3.375 6.375H4.875V5.625C4.875 4.815 5.08 4.06 5.49 3.36C5.89 2.68 6.43 2.14 7.11 1.74C7.81 1.33 8.565 1.125 9.375 1.125C10.185 1.125 10.94 1.33 11.64 1.74C12.32 2.14 12.86 2.68 13.26 3.36C13.67 4.06 13.875 4.815 13.875 5.625V6.375ZM4.125 7.875V15.375H14.625V7.875H4.125ZM8.625 10.875H10.125V12.375H8.625V10.875ZM5.625 10.875H7.125V12.375H5.625V10.875ZM11.625 10.875H13.125V12.375H11.625V10.875ZM12.375 6.375V5.625C12.375 5.085 12.24 4.585 11.97 4.125C11.7 3.665 11.335 3.3 10.875 3.03C10.415 2.76 9.915 2.625 9.375 2.625C8.835 2.625 8.335 2.76 7.875 3.03C7.415 3.3 7.05 3.665 6.78 4.125C6.51 4.585 6.375 5.085 6.375 5.625V6.375H12.375Z" fill="#6B7280"/>
</svg>
