<svg width="15" height="14" viewBox="0 0 15 14" fill="none" xmlns="http://www.w3.org/2000/svg">
<path d="M1.45801 5.25C1.45801 4.61222 1.6174 4.02111 1.93617 3.47667C2.24717 2.95556 2.66313 2.53944 3.18406 2.22833C3.72831 1.90944 4.31921 1.75 4.95676 1.75H9.62176C10.2515 1.75 10.8385 1.90944 11.3828 2.22833C11.9115 2.53944 12.3313 2.95944 12.6423 3.48833C12.9611 4.03278 13.1205 4.62 13.1205 5.25V12.25H4.95676C4.32698 12.25 3.73997 12.0906 3.19572 11.7717C2.66702 11.4606 2.24717 11.0406 1.93617 10.5117C1.6174 9.96722 1.45801 9.38 1.45801 8.75V5.25ZM11.9543 11.0833V5.25C11.9543 4.83 11.8493 4.44111 11.6394 4.08333C11.4294 3.72556 11.1457 3.44167 10.788 3.23167C10.4304 3.02167 10.0416 2.91667 9.62176 2.91667H4.95676C4.53691 2.91667 4.14816 3.02167 3.79051 3.23167C3.43286 3.44167 3.14907 3.72361 2.93915 4.0775C2.72922 4.43139 2.62426 4.82222 2.62426 5.25V8.75C2.62426 9.17 2.72922 9.55889 2.93915 9.91667C3.14907 10.2744 3.43286 10.5583 3.79051 10.7683C4.14816 10.9783 4.53691 11.0833 4.95676 11.0833H11.9543ZM8.45551 6.41667H9.62176V7.58333H8.45551V6.41667ZM4.95676 6.41667H6.12301V7.58333H4.95676V6.41667Z" fill="#7A9E82"/>
</svg>
