<svg width="19" height="18" viewBox="0 0 19 18" fill="none" xmlns="http://www.w3.org/2000/svg">
<path d="M3 16.5C2.79 16.5 2.6125 16.4275 2.4675 16.2825C2.3225 16.1375 2.25 15.96 2.25 15.75V2.25C2.25 2.04 2.3225 1.8625 2.4675 1.7175C2.6125 1.5725 2.79 1.5 3 1.5H13.5C13.71 1.5 13.8875 1.5725 14.0325 1.7175C14.1775 1.8625 14.25 2.04 14.25 2.25V4.5H12.75V3H3.75V15H12.75V13.5H14.25V15.75C14.25 15.96 14.1775 16.1375 14.0325 16.2825C13.8875 16.4275 13.71 16.5 13.5 16.5H3ZM12.75 12V9.75H7.5V8.25H12.75V6L16.5 9L12.75 12Z" fill="#6B7280"/>
</svg>
