<svg width="14" height="14" viewBox="0 0 14 14" fill="none" xmlns="http://www.w3.org/2000/svg">
<path d="M6.6625 13.333C5.7564 13.333 4.89028 13.1597 4.06413 12.813C3.27351 12.4752 2.5695 11.9975 1.95211 11.3797C1.33472 10.7619 0.857242 10.0575 0.519675 9.26634C0.173225 8.43967 0 7.57301 0 6.66634C0 5.75968 0.173225 4.89301 0.519675 4.06634C0.857242 3.27523 1.33472 2.57079 1.95211 1.95301C2.5695 1.33523 3.27351 0.857452 4.06413 0.519675C4.89028 0.173008 5.7564 -0.000325203 6.6625 -0.000325203C7.5686 -0.000325203 8.43472 0.173008 9.26087 0.519675C10.0515 0.857452 10.7555 1.33523 11.3729 1.95301C11.9903 2.57079 12.4678 3.27523 12.8053 4.06634C13.1518 4.89301 13.325 5.75968 13.325 6.66634C13.325 7.57301 13.1518 8.43967 12.8053 9.26634C12.4678 10.0575 11.9903 10.7619 11.3729 11.3797C10.7555 11.9975 10.0515 12.4752 9.26087 12.813C8.43472 13.1597 7.5686 13.333 6.6625 13.333ZM5.99625 5.99967V9.99967H7.32875V5.99967H5.99625ZM5.99625 3.33301V4.66634H7.32875V3.33301H5.99625Z" fill="white"/>
</svg>
