<svg width="32" height="30" viewBox="0 0 32 30" fill="none" xmlns="http://www.w3.org/2000/svg">
<path d="M25.625 28.125H5.625V25.625C5.625 24.4917 5.90417 23.4458 6.4625 22.4875C7.02083 21.5292 7.77917 20.7708 8.7375 20.2125C9.69583 19.6542 10.7417 19.375 11.875 19.375H19.375C20.5083 19.375 21.5542 19.6542 22.5125 20.2125C23.4708 20.7708 24.2292 21.5292 24.7875 22.4875C25.3458 23.4458 25.625 24.4917 25.625 25.625V28.125ZM15.625 16.875C14.275 16.875 13.0167 16.5333 11.85 15.85C10.7167 15.1833 9.81667 14.2833 9.15 13.15C8.46667 11.9833 8.125 10.725 8.125 9.375C8.125 8.025 8.46667 6.76667 9.15 5.6C9.81667 4.46667 10.7167 3.56667 11.85 2.9C13.0167 2.21667 14.275 1.875 15.625 1.875C16.975 1.875 18.2333 2.21667 19.4 2.9C20.5333 3.56667 21.4333 4.46667 22.1 5.6C22.7833 6.76667 23.125 8.025 23.125 9.375C23.125 10.725 22.7833 11.9833 22.1 13.15C21.4333 14.2833 20.5333 15.1833 19.4 15.85C18.2333 16.5333 16.975 16.875 15.625 16.875Z" fill="#7A9E82"/>
</svg>
