<svg width="21" height="20" viewBox="0 0 21 20" fill="none" xmlns="http://www.w3.org/2000/svg">
<path d="M17.079 18.75H15.4128V17.0833C15.4128 16.6278 15.3017 16.2083 15.0795 15.825C14.8574 15.4417 14.5547 15.1389 14.1714 14.9167C13.7882 14.6944 13.3688 14.5833 12.9134 14.5833H7.91465C7.45921 14.5833 7.03987 14.6944 6.65663 14.9167C6.27339 15.1389 5.97069 15.4417 5.74852 15.825C5.52636 16.2083 5.41527 16.6278 5.41527 17.0833V18.75H3.74902V17.0833C3.74902 16.3278 3.93509 15.6306 4.30722 14.9917C4.67935 14.3528 5.18478 13.8472 5.8235 13.475C6.46223 13.1028 7.15928 12.9167 7.91465 12.9167H12.9134C13.6688 12.9167 14.3658 13.1028 15.0045 13.475C15.6433 13.8472 16.1487 14.3528 16.5208 14.9917C16.893 15.6306 17.079 16.3278 17.079 17.0833V18.75ZM10.414 11.25C9.51425 11.25 8.67557 11.0222 7.89799 10.5667C7.14262 10.1222 6.54277 9.52222 6.09844 8.76667C5.64299 7.98889 5.41527 7.15 5.41527 6.25C5.41527 5.35 5.64299 4.51111 6.09844 3.73333C6.54277 2.97778 7.14262 2.37778 7.89799 1.93333C8.67557 1.47778 9.51425 1.25 10.414 1.25C11.3138 1.25 12.1525 1.47778 12.9301 1.93333C13.6854 2.37778 14.2853 2.97778 14.7296 3.73333C15.1851 4.51111 15.4128 5.35 15.4128 6.25C15.4128 7.15 15.1851 7.98889 14.7296 8.76667C14.2853 9.52222 13.6854 10.1222 12.9301 10.5667C12.1525 11.0222 11.3138 11.25 10.414 11.25ZM10.414 9.58333C11.0139 9.58333 11.5693 9.43333 12.0803 9.13333C12.5913 8.83333 12.9967 8.42778 13.2966 7.91667C13.5966 7.40555 13.7465 6.85 13.7465 6.25C13.7465 5.65 13.5966 5.09444 13.2966 4.58333C12.9967 4.07222 12.5913 3.66667 12.0803 3.36667C11.5693 3.06667 11.0139 2.91667 10.414 2.91667C9.81417 2.91667 9.25876 3.06667 8.74777 3.36667C8.23679 3.66667 7.83134 4.07222 7.53141 4.58333C7.23149 5.09444 7.08152 5.65 7.08152 6.25C7.08152 6.85 7.23149 7.40555 7.53141 7.91667C7.83134 8.42778 8.23679 8.83333 8.74777 9.13333C9.25876 9.43333 9.81417 9.58333 10.414 9.58333Z" fill="#7A9E82"/>
</svg>
