<svg width="32" height="30" viewBox="0 0 32 30" fill="none" xmlns="http://www.w3.org/2000/svg">
<path d="M21.6496 20.075L21.8746 20.3L22.0996 20.075C22.4496 19.7083 22.8663 19.4625 23.3496 19.3375C23.8329 19.2125 24.3163 19.2125 24.7996 19.3375C25.2829 19.4625 25.7079 19.7083 26.0746 20.075C26.4413 20.4417 26.6871 20.8667 26.8121 21.35C26.9371 21.8333 26.9371 22.3125 26.8121 22.7875C26.6871 23.2625 26.4413 23.6833 26.0746 24.05L21.8746 28.25L17.6746 24.05C17.3079 23.6833 17.0621 23.2625 16.9371 22.7875C16.8121 22.3125 16.8121 21.8333 16.9371 21.35C17.0621 20.8667 17.3079 20.4417 17.6746 20.075C18.0413 19.7083 18.4663 19.4625 18.9496 19.3375C19.4329 19.2125 19.9163 19.2125 20.3996 19.3375C20.8829 19.4625 21.2996 19.7083 21.6496 20.075ZM14.3496 18V20.5C12.9996 20.5 11.7413 20.8417 10.5746 21.525C9.44128 22.1917 8.54128 23.0917 7.87461 24.225C7.19128 25.3917 6.84961 26.65 6.84961 28H4.34961C4.34961 26.2167 4.79128 24.5583 5.67461 23.025C6.52461 21.5417 7.68294 20.3583 9.14961 19.475C10.6496 18.5417 12.2829 18.05 14.0496 18H14.3496ZM14.3496 1.75C15.7163 1.75 16.9829 2.09167 18.1496 2.775C19.2663 3.44167 20.1579 4.34167 20.8246 5.475C21.5079 6.625 21.8496 7.875 21.8496 9.225C21.8496 10.575 21.5246 11.8167 20.8746 12.95C20.2413 14.0667 19.3704 14.9667 18.2621 15.65C17.1538 16.3333 15.9413 16.7 14.6246 16.75H14.3496C12.9996 16.75 11.7413 16.4083 10.5746 15.725C9.44128 15.0583 8.54128 14.1583 7.87461 13.025C7.19128 11.875 6.84961 10.625 6.84961 9.275C6.84961 7.925 7.17461 6.68333 7.82461 5.55C8.45794 4.43333 9.32878 3.53333 10.4371 2.85C11.5454 2.16667 12.7579 1.8 14.0746 1.75H14.3496ZM14.3496 4.25C13.4496 4.25 12.6163 4.475 11.8496 4.925C11.0829 5.375 10.4746 5.98333 10.0246 6.75C9.57461 7.51667 9.34961 8.35 9.34961 9.25C9.34961 10.15 9.57461 10.9833 10.0246 11.75C10.4746 12.5167 11.0829 13.125 11.8496 13.575C12.6163 14.025 13.4496 14.25 14.3496 14.25C15.2496 14.25 16.0829 14.025 16.8496 13.575C17.6163 13.125 18.2246 12.5167 18.6746 11.75C19.1246 10.9833 19.3496 10.15 19.3496 9.25C19.3496 8.35 19.1246 7.51667 18.6746 6.75C18.2246 5.98333 17.6163 5.375 16.8496 4.925C16.0829 4.475 15.2496 4.25 14.3496 4.25Z" fill="#E5E7EB"/>
</svg>
