<svg width="25" height="24" viewBox="0 0 25 24" fill="none" xmlns="http://www.w3.org/2000/svg">
<path d="M13.2402 14.4798V16.5798C12.5869 16.3531 11.9202 16.2398 11.2402 16.2398C10.1469 16.2398 9.13357 16.5131 8.20023 17.0598C7.29357 17.5798 6.58023 18.2931 6.06023 19.1998C5.51357 20.1331 5.24023 21.1464 5.24023 22.2398H3.24023C3.24023 20.7864 3.60023 19.4398 4.32023 18.1998C5.0269 16.9864 5.9869 16.0264 7.20023 15.3198C8.44023 14.5998 9.7869 14.2398 11.2402 14.2398C11.9202 14.2398 12.5869 14.3198 13.2402 14.4798ZM11.2402 13.2398C10.1469 13.2398 9.13357 12.9664 8.20023 12.4198C7.29357 11.8864 6.58023 11.1664 6.06023 10.2598C5.51357 9.32643 5.24023 8.31643 5.24023 7.22977C5.24023 6.1431 5.51357 5.1331 6.06023 4.19977C6.58023 3.2931 7.29357 2.57977 8.20023 2.05977C9.13357 1.5131 10.1436 1.23977 11.2302 1.23977C12.3169 1.23977 13.3269 1.5131 14.2602 2.05977C15.1669 2.57977 15.8869 3.2931 16.4202 4.19977C16.9669 5.1331 17.2402 6.1431 17.2402 7.22977C17.2402 8.31643 16.9669 9.32643 16.4202 10.2598C15.8869 11.1664 15.1669 11.8864 14.2602 12.4198C13.3269 12.9664 12.3202 13.2398 11.2402 13.2398ZM11.2402 11.2398C11.9602 11.2398 12.6269 11.0598 13.2402 10.6998C13.8536 10.3398 14.3402 9.8531 14.7002 9.23977C15.0602 8.62643 15.2402 7.95643 15.2402 7.22977C15.2402 6.5031 15.0602 5.8331 14.7002 5.21977C14.3402 4.60643 13.8536 4.1231 13.2402 3.76977C12.6269 3.41643 11.9569 3.23977 11.2302 3.23977C10.5036 3.23977 9.83357 3.41643 9.22023 3.76977C8.6069 4.1231 8.12357 4.60643 7.77023 5.21977C7.4169 5.8331 7.24023 6.5031 7.24023 7.22977C7.24023 7.95643 7.4169 8.62643 7.77023 9.23977C8.12357 9.8531 8.6069 10.3398 9.22023 10.6998C9.83357 11.0598 10.5069 11.2398 11.2402 11.2398ZM18.2402 17.8198L20.3602 15.6998L21.7602 17.1198L19.6402 19.2398L21.7602 21.3598L20.3602 22.7598L18.2402 20.6398L16.1202 22.7598L14.7002 21.3598L16.8202 19.2398L14.7002 17.1198L16.1202 15.6998L18.2402 17.8198Z" fill="#F87171"/>
</svg>
