<svg width="21" height="20" viewBox="0 0 21 20" fill="none" xmlns="http://www.w3.org/2000/svg">
<path d="M3.19928 14.1668C2.84381 13.5557 2.57165 12.9112 2.38281 12.2335C2.79382 12.0224 3.12429 11.7168 3.37423 11.3168C3.62417 10.9168 3.74914 10.4779 3.74914 10.0001C3.74914 9.52235 3.62417 9.08346 3.37423 8.68346C3.12429 8.28346 2.79382 7.97791 2.38281 7.7668C2.7716 6.37791 3.46588 5.17235 4.46563 4.15013C4.85442 4.40569 5.28486 4.5418 5.75697 4.55846C6.22907 4.57513 6.67063 4.46402 7.08164 4.22513C7.49265 3.98624 7.80923 3.65846 8.0314 3.2418C8.25357 2.82513 8.35354 2.38902 8.33133 1.93346C9.71987 1.5668 11.1084 1.5668 12.497 1.93346C12.4747 2.38902 12.5747 2.82513 12.7969 3.2418C13.019 3.65846 13.3356 3.98624 13.7466 4.22513C14.1576 4.46402 14.5992 4.57513 15.0713 4.55846C15.5434 4.5418 15.9739 4.40569 16.3627 4.15013C16.8514 4.66124 17.2735 5.22235 17.629 5.83346C17.9845 6.44458 18.2566 7.08902 18.4455 7.7668C18.0345 7.97791 17.704 8.28346 17.454 8.68346C17.2041 9.08346 17.0791 9.52235 17.0791 10.0001C17.0791 10.4779 17.2041 10.9168 17.454 11.3168C17.704 11.7168 18.0345 12.0224 18.4455 12.2335C18.0567 13.6224 17.3624 14.8279 16.3627 15.8501C15.9739 15.5946 15.5434 15.4585 15.0713 15.4418C14.5992 15.4251 14.1576 15.5362 13.7466 15.7751C13.3356 16.014 13.019 16.3418 12.7969 16.7585C12.5747 17.1751 12.4747 17.6112 12.497 18.0668C11.1084 18.4335 9.71987 18.4335 8.33133 18.0668C8.35354 17.6112 8.25357 17.1751 8.0314 16.7585C7.80923 16.3418 7.49265 16.014 7.08164 15.7751C6.67063 15.5362 6.22907 15.4251 5.75697 15.4418C5.28486 15.4585 4.85442 15.5946 4.46563 15.8501C3.97686 15.339 3.55474 14.7779 3.19928 14.1668ZM7.91476 14.3335C8.3591 14.589 8.74233 14.9168 9.06448 15.3168C9.38662 15.7168 9.631 16.1557 9.79763 16.6335C10.2086 16.6779 10.6196 16.6779 11.0307 16.6335C11.1973 16.1557 11.4389 15.7168 11.7555 15.3168C12.0721 14.9168 12.4553 14.5862 12.9052 14.3251C13.3551 14.064 13.8355 13.8946 14.3465 13.8168C14.8575 13.739 15.3573 13.7557 15.8461 13.8668C16.0905 13.5224 16.3016 13.1612 16.4793 12.7835C16.1349 12.4057 15.8711 11.9779 15.6878 11.5001C15.5045 11.0224 15.4129 10.5224 15.4129 10.0001C15.4129 9.47791 15.5045 8.97791 15.6878 8.50013C15.8711 8.02235 16.1349 7.59457 16.4793 7.2168C16.3904 7.02791 16.2932 6.84457 16.1877 6.6668C16.0822 6.48902 15.9683 6.31124 15.8461 6.13346C15.3573 6.24458 14.8575 6.26124 14.3465 6.18346C13.8355 6.10569 13.3578 5.93624 12.9135 5.67513C12.4692 5.41402 12.0859 5.08346 11.7638 4.68346C11.4417 4.28346 11.1973 3.84458 11.0307 3.3668C10.6196 3.32235 10.2086 3.32235 9.79763 3.3668C9.631 3.84458 9.38939 4.28346 9.07281 4.68346C8.75622 5.08346 8.3702 5.41402 7.91476 5.67513C7.45932 5.93624 6.97889 6.10569 6.47346 6.18346C5.96803 6.26124 5.47093 6.24458 4.98216 6.13346C4.73778 6.47791 4.52672 6.83902 4.34899 7.2168C4.69335 7.59457 4.95717 8.02235 5.14046 8.50013C5.32374 8.97791 5.41539 9.47791 5.41539 10.0001C5.41539 10.5224 5.32374 11.0224 5.14046 11.5001C4.95717 11.9779 4.69335 12.4057 4.34899 12.7835C4.43785 12.9724 4.53505 13.1557 4.64058 13.3335C4.74611 13.5112 4.85997 13.689 4.98216 13.8668C5.47093 13.7557 5.9708 13.739 6.48179 13.8168C6.99277 13.8946 7.47043 14.0668 7.91476 14.3335ZM10.4141 12.5001C9.9587 12.5001 9.53936 12.389 9.15612 12.1668C8.77288 11.9446 8.47018 11.6418 8.24801 11.2585C8.02585 10.8751 7.91476 10.4557 7.91476 10.0001C7.91476 9.54457 8.02585 9.12513 8.24801 8.7418C8.47018 8.35846 8.77288 8.05569 9.15612 7.83346C9.53936 7.61124 9.9587 7.50013 10.4141 7.50013C10.8696 7.50013 11.2889 7.61124 11.6722 7.83346C12.0554 8.05569 12.3581 8.35846 12.5803 8.7418C12.8024 9.12513 12.9135 9.54457 12.9135 10.0001C12.9135 10.4557 12.8024 10.8751 12.5803 11.2585C12.3581 11.6418 12.0554 11.9446 11.6722 12.1668C11.2889 12.389 10.8696 12.5001 10.4141 12.5001ZM10.4141 10.8335C10.6474 10.8335 10.8446 10.7529 11.0057 10.5918C11.1667 10.4307 11.2473 10.2335 11.2473 10.0001C11.2473 9.7668 11.1667 9.56958 11.0057 9.40846C10.8446 9.24735 10.6474 9.1668 10.4141 9.1668C10.1809 9.1668 9.98369 9.24735 9.82262 9.40846C9.66155 9.56958 9.58101 9.7668 9.58101 10.0001C9.58101 10.2335 9.66155 10.4307 9.82262 10.5918C9.98369 10.7529 10.1809 10.8335 10.4141 10.8335Z" fill="#7A9E82" fill-opacity="0.6"/>
</svg>
