<svg width="19" height="18" viewBox="0 0 19 18" fill="none" xmlns="http://www.w3.org/2000/svg">
<path d="M12.9899 12.0452L13.1249 12.1802L13.2599 12.0452C13.4699 11.8252 13.7199 11.6777 14.0099 11.6027C14.2999 11.5277 14.5899 11.5277 14.8799 11.6027C15.1699 11.6777 15.4249 11.8252 15.6449 12.0452C15.8649 12.2652 16.0124 12.5202 16.0874 12.8102C16.1624 13.1002 16.1624 13.3877 16.0874 13.6727C16.0124 13.9577 15.8649 14.2102 15.6449 14.4302L13.1249 16.9502L10.6049 14.4302C10.3849 14.2102 10.2374 13.9577 10.1624 13.6727C10.0874 13.3877 10.0874 13.1002 10.1624 12.8102C10.2374 12.5202 10.3849 12.2652 10.6049 12.0452C10.8249 11.8252 11.0799 11.6777 11.3699 11.6027C11.6599 11.5277 11.9499 11.5277 12.2399 11.6027C12.5299 11.6777 12.7799 11.8252 12.9899 12.0452ZM8.60986 10.8002V12.3002C7.79986 12.3002 7.04486 12.5052 6.34486 12.9152C5.66486 13.3152 5.12486 13.8552 4.72486 14.5352C4.31486 15.2352 4.10986 15.9902 4.10986 16.8002H2.60986C2.60986 15.7302 2.87486 14.7352 3.40486 13.8152C3.91486 12.9252 4.60986 12.2152 5.48986 11.6852C6.38986 11.1252 7.36986 10.8302 8.42986 10.8002H8.60986ZM8.60986 1.0502C9.42986 1.0502 10.1899 1.2552 10.8899 1.6652C11.5599 2.0652 12.0949 2.6052 12.4949 3.2852C12.9049 3.9752 13.1099 4.7252 13.1099 5.5352C13.1099 6.3452 12.9149 7.0902 12.5249 7.7702C12.1449 8.4402 11.6224 8.9802 10.9574 9.3902C10.2924 9.8002 9.56486 10.0202 8.77486 10.0502H8.60986C7.79986 10.0502 7.04486 9.8452 6.34486 9.4352C5.66486 9.0352 5.12486 8.4952 4.72486 7.8152C4.31486 7.1252 4.10986 6.3752 4.10986 5.5652C4.10986 4.7552 4.30486 4.0102 4.69486 3.3302C5.07486 2.6602 5.59736 2.1202 6.26236 1.7102C6.92736 1.3002 7.65486 1.0802 8.44486 1.0502H8.60986ZM8.60986 2.5502C8.06986 2.5502 7.56986 2.6852 7.10986 2.9552C6.64986 3.2252 6.28486 3.5902 6.01486 4.0502C5.74486 4.5102 5.60986 5.0102 5.60986 5.5502C5.60986 6.0902 5.74486 6.5902 6.01486 7.0502C6.28486 7.5102 6.64986 7.8752 7.10986 8.1452C7.56986 8.4152 8.06986 8.5502 8.60986 8.5502C9.14986 8.5502 9.64986 8.4152 10.1099 8.1452C10.5699 7.8752 10.9349 7.5102 11.2049 7.0502C11.4749 6.5902 11.6099 6.0902 11.6099 5.5502C11.6099 5.0102 11.4749 4.5102 11.2049 4.0502C10.9349 3.5902 10.5699 3.2252 10.1099 2.9552C9.64986 2.6852 9.14986 2.5502 8.60986 2.5502Z" fill="#7A9E82"/>
</svg>
