<svg width="17" height="16" viewBox="0 0 17 16" fill="none" xmlns="http://www.w3.org/2000/svg">
<path d="M8.32803 14.667C7.42193 14.667 6.5558 14.4937 5.72965 14.147C4.93904 13.8092 4.23503 13.3314 3.61764 12.7137C3.00025 12.0959 2.52277 11.3914 2.1852 10.6003C1.83875 9.77366 1.66553 8.90699 1.66553 8.00033C1.66553 7.09366 1.83875 6.22699 2.1852 5.40033C2.52277 4.60921 3.00025 3.90477 3.61764 3.28699C4.23503 2.66922 4.93904 2.19144 5.72965 1.85366C6.5558 1.50699 7.42193 1.33366 8.32803 1.33366C9.23413 1.33366 10.1003 1.50699 10.9264 1.85366C11.717 2.19144 12.421 2.66922 13.0384 3.28699C13.6558 3.90477 14.1333 4.60921 14.4709 5.40033C14.8173 6.22699 14.9905 7.09366 14.9905 8.00033C14.9905 8.90699 14.8173 9.77366 14.4709 10.6003C14.1333 11.3914 13.6558 12.0959 13.0384 12.7137C12.421 13.3314 11.717 13.8092 10.9264 14.147C10.1003 14.4937 9.23413 14.667 8.32803 14.667ZM8.32803 13.3337C9.29631 13.3337 10.1935 13.0892 11.0197 12.6003C11.8192 12.1292 12.4543 11.4937 12.9252 10.6937C13.4137 9.86699 13.658 8.96921 13.658 8.00033C13.658 7.03144 13.4137 6.13366 12.9252 5.30699C12.4543 4.50699 11.8192 3.87144 11.0197 3.40033C10.1935 2.91144 9.29631 2.66699 8.32803 2.66699C7.35974 2.66699 6.46253 2.91144 5.63638 3.40033C4.83688 3.87144 4.20172 4.50699 3.7309 5.30699C3.24232 6.13366 2.99803 7.03144 2.99803 8.00033C2.99803 8.96921 3.24232 9.86699 3.7309 10.6937C4.20172 11.4937 4.83688 12.1292 5.63638 12.6003C6.46253 13.0892 7.35974 13.3337 8.32803 13.3337ZM8.99428 8.00033H11.6593V9.33366H7.66178V4.66699H8.99428V8.00033Z" fill="#F59E0B"/>
</svg>
